<?xml version="1.0" encoding="utf-8"?>
<!-- Generator: Adobe Illustrator 21.0.2, SVG Export Plug-In . SVG Version: 6.00 Build 0)  -->
<svg version="1.1" id="Layer_1" xmlns="http://www.w3.org/2000/svg" xmlns:xlink="http://www.w3.org/1999/xlink" x="0px" y="0px"
	 viewBox="0 0 512 512" style="enable-background:new 0 0 512 512;" xml:space="preserve">
<style type="text/css">
	.st0{fill:none;stroke:#000000;stroke-miterlimit:10;}
	.st1{fill:#FF3800;stroke:#000000;stroke-miterlimit:10;}
	.st2{fill:#CA0D43;}
</style>
<line class="st0" x1="338.3" y1="100.7" x2="279.5" y2="344.2"/>
<line class="st1" x1="206.3" y1="169.6" x2="150.6" y2="413.8"/>
<line class="st0" x1="206" y1="168.4" x2="283.7" y2="343.6"/>
<circle class="st2" cx="206" cy="168.4" r="50"/>
<circle class="st2" cx="283.7" cy="343.6" r="50"/>
<path class="st2" d="M276.2,345.6l9.5,2.3c4.3,1,8.6-1.6,9.7-5.9l62-256.6c1-4.3-1.6-8.6-5.9-9.7l-9.5-2.3c-4.3-1-8.6,1.6-9.7,5.9
	l-62,256.6C269.2,340.3,271.9,344.6,276.2,345.6z"/>
<path class="st2" d="M140.7,429.1l9.5,2.2c4.3,1,8.6-1.7,9.6-6l58.5-257.4c1-4.3-1.7-8.6-6-9.6l-9.5-2.2c-4.3-1-8.6,1.7-9.6,6
	l-58.5,257.4C133.7,423.8,136.4,428.1,140.7,429.1z"/>
<path class="st2" d="M291.7,360.3L291.7,360.3c4.1-1.7,6-6.4,4.3-10.5l-81.8-196.3c-1.7-4.1-6.4-6-10.5-4.3h0
	c-4.1,1.7-6,6.4-4.3,10.5L281.2,356C282.9,360,287.6,362,291.7,360.3z"/>
</svg>
