<?xml version="1.0" encoding="utf-8"?>
<!-- Generator: Adobe Illustrator 21.0.2, SVG Export Plug-In . SVG Version: 6.00 Build 0)  -->
<svg version="1.1" id="Layer_1" xmlns="http://www.w3.org/2000/svg" xmlns:xlink="http://www.w3.org/1999/xlink" x="0px" y="0px"
	 viewBox="0 0 512 512" style="enable-background:new 0 0 512 512;" xml:space="preserve">
<style type="text/css">
	.st0{fill:#CA0D43;}
	.st1{fill:none;stroke:#FFFFFF;stroke-width:10;stroke-miterlimit:10;}
	.st2{fill:#FFFFFF;}
</style>
<path class="st0" d="M442,512H70c-38.5,0-70-31.5-70-70V70C0,31.5,31.5,0,70,0h372c38.5,0,70,31.5,70,70v372
	C512,480.5,480.5,512,442,512z"/>
<path class="st1" d="M35-44.3c315,0.4,569.6,224.3,569.3,500.7"/>
<path class="st1" d="M-217.6,236.7c315,0.4,569.6,224.3,569.3,500.7"/>
<path class="st1" d="M219.3-189.1c0.5,315-222.6,570.3-499,570.8"/>
<path class="st1" d="M364.9-101.6c0.5,315-222.6,570.3-499,570.8"/>
<path class="st1" d="M520.6,0c0.5,315-222.6,570.3-499,570.8"/>
<path class="st1" d="M-115.8,56.5c315,0.4,569.6,224.3,569.3,500.7"/>
<g>
	<path class="st2" d="M204.5,127.6L330,317.4V125.8c0-12.4,2.7-21.8,8-28c5.3-6.2,12.6-9.3,21.6-9.3c9.4,0,16.8,3.1,22.2,9.3
		c5.4,6.2,8.1,15.6,8.1,28v253.3c0,28.3-11.7,42.4-35.2,42.4c-5.9,0-11.1-0.8-15.8-2.5c-4.7-1.7-9.1-4.4-13.2-8
		c-4.1-3.7-7.9-7.9-11.4-12.9c-3.5-4.9-7-9.9-10.5-15.1L181.4,195.5v188.7c0,12.3-2.9,21.6-8.6,27.9s-13,9.4-22,9.4
		c-9.2,0-16.6-3.2-22.2-9.6c-5.6-6.4-8.3-15.6-8.3-27.8V135.7c0-10.5,1.2-18.8,3.5-24.8c2.8-6.6,7.4-12,13.8-16.1
		c6.4-4.2,13.4-6.3,20.9-6.3c5.9,0,10.9,1,15.1,2.9c4.2,1.9,7.8,4.5,11,7.7c3.1,3.2,6.4,7.4,9.7,12.5
		C197.6,116.7,201,122,204.5,127.6z"/>
</g>
</svg>
